<svg xmlns="http://www.w3.org/2000/svg" xmlns:svg="http://www.w3.org/2000/svg" width="275.68097504180446" height="362.73812505500587" viewBox="0 0 140.85468 185.20833" version="1.1" id="svg1" xml:space="preserve"><defs id="defs1"/><g id="layer1" transform="translate(-31.248339,-64.341761)"><g id="g1" transform="matrix(0.26458333,0,0,0.26458333,2.7241611,8.6840225)"><g id="g46" transform="translate(-26.004317,160.35996)">
	<g id="g21">
		<g id="g6">
			<path style="fill:#ac996a" d="m 273.34,113.45 8.98,27.79 c 0,0 119.64,27.79 235.16,0 l 8.86,-27.18 c -0.01,-0.01 -85.07,-43.2 -253,-0.61 z" id="path2"/>
			<path style="fill:#ac996a" d="m 270.12,96.7 3.22,11.47 c 0,0 133.96,-44.96 252.39,-0.18 l 3.4,-10.56 c -0.01,0 -113.22,-43.2 -259.01,-0.73 z" id="path3"/>
			<polygon style="fill:#ac996a" points="369.77,50.2 356.12,50.93 356.12,58.75 350.57,58.94 350.84,68.85 342.47,69.13 344.65,78.68 383.24,76.23 384.24,66.58 375.41,67.03 375.32,57.66 369.77,58.21 " id="polygon3"/>
			<polygon style="fill:#ac996a" points="449.43,51.31 435.82,50 434.66,57.74 429.14,57.09 427.93,66.94 419.61,65.96 420.35,75.74 458.87,79.06 461.3,69.67 452.5,68.8 453.81,59.52 448.24,59.23 " id="polygon4"/>
			<polygon style="fill:#ac996a" points="524.33,65.43 511.22,61.56 508.6,68.94 503.31,67.26 500.26,76.7 492.27,74.17 491.15,83.9 528.34,94.46 532.5,85.7 524.03,83.19 527.07,74.32 521.66,72.98 " id="polygon5"/>
			<polygon style="fill:#ac996a" points="275.4,64.19 288.62,60.7 291.02,68.15 296.36,66.62 299.14,76.15 307.19,73.84 308.04,83.61 270.56,93.09 266.65,84.22 275.19,81.94 272.4,72.99 277.86,71.81 " id="polygon6"/>
		</g>
		<g id="g20">
			<circle style="fill:#ffffff" cx="305.25" cy="120.05" r="4.6100001" id="circle6"/>
			<circle style="fill:#ffffff" cx="318.92999" cy="130.99001" r="4.6100001" id="circle7"/>
			<circle style="fill:#ffffff" cx="325.60001" cy="115.44" r="4.6100001" id="circle8"/>
			<circle style="fill:#ffffff" cx="496.45999" cy="118.63" r="4.6100001" id="circle9"/>
			<circle style="fill:#ffffff" cx="482.78" cy="129.56" r="4.6100001" id="circle10"/>
			<circle style="fill:#ffffff" cx="476.10999" cy="114.02" r="4.6100001" id="circle11"/>
			<circle style="fill:#ffffff" cx="349.75" cy="124.13" r="4.6100001" id="circle12"/>
			<circle style="fill:#ffffff" cx="369.89001" cy="122.92" r="4.6100001" id="circle13"/>
			<circle style="fill:#ffffff" cx="357.76001" cy="109.69" r="4.6100001" id="circle14"/>
			<circle style="fill:#ffffff" cx="391" cy="106.22" r="4.6100001" id="circle15"/>
			<circle style="fill:#ffffff" cx="401.44" cy="120.98" r="4.6100001" id="circle16"/>
			<circle style="fill:#ffffff" cx="411.75" cy="106.22" r="4.6100001" id="circle17"/>
			<circle style="fill:#ffffff" cx="435.04999" cy="122.92" r="4.6100001" id="circle18"/>
			<circle style="fill:#ffffff" cx="446.20999" cy="109.69" r="4.6100001" id="circle19"/>
			<circle style="fill:#ffffff" cx="454.59" cy="124.67" r="4.6100001" id="circle20"/>
		</g>
	</g>
	<g id="g27">
		<path style="fill:#2e2f38" d="M 665.96,474.32 C 665.23,445.68 643.5,371.67 643.5,371.67 628.57,325.8 629.68,286.13 629.68,286.13 c 0,0 -12.03,5.62 -20.63,9.58 7.93,-40.52 34.36,-66.25 34.36,-66.25 L 579.35,120.99 c -70.5,42.83 -179.34,40.52 -179.34,40.52 0,0 -108.84,2.31 -179.34,-40.52 l -64.06,108.47 c 0,0 26.45,25.75 34.36,66.27 -8.6,-3.96 -20.66,-9.6 -20.66,-9.6 0,0 1.11,39.68 -13.82,85.54 0,0 -21.73,74.01 -22.46,102.65 0,0 -4.98,68.68 32.69,123.51 0,0 28.46,48.77 91.56,76.36 5.53,2.42 11.32,4.68 17.39,6.73 h 0.01 l 21.36,10.02 c 6.1,2.88 12.3,5.56 18.56,8.08 3.17,1.28 7.13,2.92 11.59,4.85 11.04,4.79 25.19,11.39 38.32,18.88 14.7,8.38 28.13,17.89 34.47,27.25 6.34,-9.35 19.76,-18.85 34.45,-27.23 13.13,-7.49 27.29,-14.09 38.32,-18.86 4.45,-1.94 8.4,-3.56 11.56,-4.85 6.3,-2.54 12.53,-5.25 18.68,-8.13 l 21.43,-10.07 c 6.02,-2.02 11.76,-4.26 17.25,-6.67 63.1,-27.59 91.56,-76.36 91.56,-76.36 37.7,-54.83 32.73,-123.51 32.73,-123.51 z m -481.8,141.85 c 0,0 -32.52,-38.41 -39.99,-82.09 0,0 -12.92,-50.06 -1.64,-95.37 l 18.58,-69.16 c 0,0 15.1,-55.82 11.65,-77.96 l 18.88,7.74 c 2.78,16.92 2.25,36.27 -4.69,57.29 l -23.3,86.27 c 0,0 -27.79,84.48 26.23,168.61 10.24,15.95 23.03,29.98 37.75,41.66 -7.36,-2.43 -21.05,-10.72 -43.47,-36.99 z m 357.54,44.92 c -3.21,1.24 -7.11,2.77 -11.58,4.53 -15.08,5.97 -36.34,14.66 -57.34,24.11 V 283.91 c -12.02,2.48 -24.84,4.51 -38.32,5.83 v 418.58 c -18.55,9.94 -32.41,19.36 -34.45,26.13 -2.04,-6.77 -15.91,-16.21 -34.47,-26.15 V 289.76 c -12.45,-1.21 -25.24,-3.12 -38.32,-5.86 v 405.82 c -21,-9.45 -42.27,-18.14 -57.34,-24.11 -4.46,-1.75 -8.37,-3.29 -11.58,-4.53 V 262.17 c -14.47,-6.13 -29.18,-13.4 -44.06,-21.91 v -4.86 c 0,0 16.13,9.67 44.06,20.2 18.31,6.9 41.69,14.17 68.92,19.33 12.05,2.3 24.86,4.16 38.32,5.4 21.46,2.01 44.57,2.41 68.92,0.33 12.46,-1.04 25.26,-2.75 38.32,-5.22 22.3,-4.22 45.37,-10.66 68.92,-19.92 14.33,-5.63 28.84,-12.29 43.47,-20.13 v 4.86 c 0,0 -15.8,10.71 -43.47,22.33 z M 655.84,534.07 c -7.47,43.68 -39.99,82.09 -39.99,82.09 -22.38,26.23 -36.06,34.53 -43.43,36.97 14.71,-11.68 27.5,-25.71 37.74,-41.65 54.02,-84.13 26.23,-168.61 26.23,-168.61 l -23.3,-86.27 c -6.94,-21.02 -7.47,-40.36 -4.69,-57.29 v -0.01 l 18.85,-7.73 c -3.45,22.14 11.65,77.96 11.65,77.96 l 18.56,69.16 c 11.29,45.32 -1.62,95.38 -1.62,95.38 z" id="path21"/>
		<path style="fill:#ffffff" d="m 227.63,653.15 c -7.36,-2.42 -21.04,-10.71 -43.47,-36.98 0,0 -32.52,-38.41 -39.99,-82.09 0,0 -12.92,-50.06 -1.64,-95.37 l 18.58,-69.16 c 0,0 15.1,-55.82 11.65,-77.96 l 18.88,7.74 c 2.78,16.92 2.25,36.27 -4.69,57.29 l -23.3,86.27 c 0,0 -27.79,84.48 26.23,168.61 10.23,15.94 23.02,29.97 37.75,41.65 z" id="path22"/>
		<path style="fill:#ffffff" d="m 655.84,534.07 c -7.47,43.68 -39.99,82.09 -39.99,82.09 -22.38,26.23 -36.06,34.53 -43.43,36.97 14.71,-11.68 27.5,-25.71 37.74,-41.65 54.02,-84.13 26.23,-168.61 26.23,-168.61 l -23.3,-86.27 c -6.94,-21.02 -7.47,-40.36 -4.69,-57.29 v -0.01 l 18.85,-7.73 c -3.45,22.14 11.65,77.96 11.65,77.96 l 18.56,69.16 c 11.29,45.32 -1.62,95.38 -1.62,95.38 z" id="path23"/>
		<path style="fill:#ac996a" d="m 585.18,235.39 v 4.86 c 0,0 -15.8,10.71 -43.47,22.33 -18.21,7.64 -41.55,15.68 -68.92,21.33 -12.02,2.48 -24.84,4.51 -38.32,5.83 -21.39,2.08 -44.48,2.41 -68.92,0.01 -12.45,-1.21 -25.24,-3.12 -38.32,-5.86 -22.2,-4.66 -45.25,-11.69 -68.92,-21.73 -14.47,-6.13 -29.18,-13.4 -44.06,-21.91 v -4.86 c 0,0 16.13,9.67 44.06,20.2 18.31,6.9 41.69,14.17 68.92,19.33 12.05,2.3 24.86,4.16 38.32,5.4 21.46,2.01 44.57,2.41 68.92,0.33 12.46,-1.04 25.26,-2.75 38.32,-5.22 22.3,-4.22 45.37,-10.66 68.92,-19.92 14.32,-5.62 28.84,-12.28 43.47,-20.12 z" id="path24"/>
		<path style="fill:#ee2616" d="m 327.22,283.9 v 405.82 c -21,-9.45 -42.27,-18.14 -57.34,-24.11 -4.46,-1.75 -8.37,-3.29 -11.58,-4.53 V 262.17 c 23.66,10.03 46.72,17.06 68.92,21.73 z" id="path25"/>
		<path style="fill:#ee2616" d="m 434.46,289.74 v 418.58 c -18.55,9.94 -32.41,19.36 -34.45,26.13 -2.04,-6.77 -15.91,-16.21 -34.47,-26.15 V 289.76 c 24.44,2.39 47.53,2.06 68.92,-0.02 z" id="path26"/>
		<path style="fill:#ee2616" d="m 541.7,262.58 v 398.51 c -3.21,1.24 -7.11,2.77 -11.58,4.53 -15.08,5.97 -36.34,14.66 -57.34,24.11 V 283.91 c 27.38,-5.65 50.72,-13.69 68.92,-21.33 z" id="path27"/>
	</g>
	<g id="g37">
		<path style="fill:#ffffff" d="m 280.86,230.84 -0.17,0.45 -8.91,-3.46 -4,-16.81 -3.07,-1.19 -5.15,13.26 -7.75,-3.01 14.13,-36.41 12.19,4.73 c 3.22,1.25 5.71,2.79 7.48,4.62 1.77,1.83 2.85,3.8 3.23,5.91 0.39,2.11 0.16,4.25 -0.68,6.43 -0.99,2.55 -2.48,4.5 -4.47,5.86 -1.99,1.36 -4.4,2.01 -7.22,1.95 z m -13.82,-27.02 3.5,1.36 c 2.3,0.89 4.23,1.15 5.81,0.77 1.58,-0.38 2.75,-1.56 3.52,-3.55 0.67,-1.72 0.62,-3.23 -0.16,-4.52 -0.78,-1.29 -2.16,-2.32 -4.15,-3.1 l -4.36,-1.69 z" id="path28"/>
		<path style="fill:#ffffff" d="m 286.58,233.19 10.41,-37.64 8.02,2.22 -10.41,37.64 z" id="path29"/>
		<path style="fill:#ffffff" d="m 341.17,205.57 -0.09,0.47 -17.35,19.32 -3.13,15.97 -7.51,-1.47 3.08,-15.73 -8.4,-24.61 0.09,-0.47 8.71,1.71 5.05,16.34 11.17,-13.17 z" id="path30"/>
		<path style="fill:#ffffff" d="m 358.21,207.76 7.99,39.89 -0.06,0.48 -8.31,-1.05 -1.69,-9.63 -13.21,-1.67 -3.98,8.91 -8.2,-1.04 0.06,-0.48 17.66,-36.65 z m -12.33,21.46 9.02,1.14 -2.7,-15.35 z" id="path31"/>
		<path style="fill:#ffffff" d="m 399.89,213.23 c 3.38,3.02 5,8.09 4.85,15.2 -0.09,4.34 -1.07,7.96 -2.94,10.85 -1.87,2.9 -4.33,5.02 -7.37,6.36 -3.04,1.35 -6.37,1.98 -10,1.91 l -11.7,-0.23 0.78,-39.04 11.98,0.24 c 6.22,0.12 11.02,1.69 14.4,4.71 z m -9.2,26.1 c 1.9,-0.63 3.36,-1.81 4.36,-3.56 1,-1.75 1.53,-4.25 1.6,-7.5 0.06,-3.01 -0.33,-5.41 -1.16,-7.2 -0.83,-1.78 -2.09,-3.09 -3.77,-3.9 -1.68,-0.82 -3.82,-1.25 -6.4,-1.3 l -4.28,-0.09 -0.49,24.34 2.55,0.05 c 3.16,0.06 5.69,-0.22 7.59,-0.84 z" id="path32"/>
		<path style="fill:#ffffff" d="m 434.75,207.61 7.65,-0.17 0.88,39.04 -7.65,0.17 -0.37,-16.21 -16.69,0.38 0.37,16.21 -7.65,0.17 -0.88,-39.04 7.65,-0.17 0.35,15.6 16.69,-0.38 z" id="path33"/>
		<path style="fill:#ffffff" d="m 484.62,208.4 -16.25,1.92 1.15,9.7 14.04,-1.66 -0.09,6.93 -13.15,1.56 1.82,15.38 -7.6,0.9 -4.59,-38.78 23.85,-2.83 z" id="path34"/>
		<path style="fill:#ffffff" d="m 494.95,235.12 c -0.73,-0.36 -1.34,-0.87 -1.83,-1.54 -0.49,-0.67 -0.79,-1.44 -0.89,-2.32 -0.1,-0.84 0.01,-1.64 0.33,-2.41 0.32,-0.77 0.79,-1.41 1.42,-1.93 0.63,-0.52 1.34,-0.83 2.15,-0.92 0.77,-0.09 1.52,0.04 2.25,0.4 0.73,0.36 1.35,0.87 1.86,1.54 0.51,0.67 0.81,1.42 0.91,2.26 0.1,0.88 0,1.7 -0.32,2.47 -0.32,0.77 -0.8,1.41 -1.45,1.93 -0.65,0.52 -1.35,0.83 -2.13,0.92 -0.8,0.09 -1.57,-0.04 -2.3,-0.4 z" id="path35"/>
		<path style="fill:#ffffff" d="m 542.28,220.65 c -0.73,-0.36 -1.34,-0.87 -1.83,-1.54 -0.49,-0.67 -0.79,-1.44 -0.89,-2.32 -0.1,-0.84 0.01,-1.64 0.33,-2.41 0.32,-0.77 0.79,-1.41 1.42,-1.93 0.63,-0.52 1.34,-0.83 2.15,-0.92 0.77,-0.09 1.52,0.04 2.25,0.4 0.73,0.36 1.35,0.87 1.86,1.54 0.51,0.67 0.81,1.42 0.91,2.26 0.1,0.88 0,1.7 -0.32,2.47 -0.32,0.77 -0.8,1.41 -1.45,1.93 -0.65,0.52 -1.35,0.83 -2.13,0.92 -0.8,0.09 -1.56,-0.04 -2.3,-0.4 z" id="path36"/>
		<path style="fill:#ffffff" d="m 513.09,228.72 c -4,-2.24 -7.2,-6.17 -9.6,-11.79 -1.94,-4.54 -2.81,-8.53 -2.59,-11.97 0.22,-3.44 1.25,-6.28 3.08,-8.53 1.83,-2.25 4.23,-4 7.19,-5.27 2.07,-0.89 4.09,-1.43 6.05,-1.64 1.96,-0.21 4.05,-0.12 6.26,0.24 l -0.23,6.98 c -3.15,-0.66 -6.15,-0.39 -8.99,0.83 -5.78,2.47 -6.95,7.71 -3.52,15.73 1.71,3.99 3.8,6.68 6.3,8.06 2.49,1.38 5.21,1.44 8.14,0.19 1.5,-0.64 2.73,-1.42 3.67,-2.33 0.95,-0.91 1.87,-2.01 2.77,-3.31 l 5.19,4.34 c -1.33,1.97 -2.74,3.63 -4.23,4.99 -1.49,1.36 -3.22,2.46 -5.19,3.3 -5.53,2.36 -10.3,2.42 -14.3,0.18 z" id="path37"/>
	</g>
	<g id="g45">
		<path style="fill:#ffffff" d="m 280.93,482.76 h -0.08 l -5.03,2.39 -1.02,-4.64 7.01,-3.26 h 5.1 v 26.45 h -5.98 z" id="path38"/>
		<path style="fill:#ffffff" d="m 296.36,499.24 c 0.8,0.09 1.47,0.06 2.69,-0.01 1.89,-0.1 3.8,-0.65 5.21,-1.63 1.74,-1.17 2.87,-2.9 3.33,-4.9 l -0.1,-0.04 c -1.19,1.22 -2.91,1.91 -5.32,1.91 -4.47,0 -8.23,-3.1 -8.23,-8.24 0,-5.16 4.15,-9.52 9.96,-9.52 6.8,0 10,5.21 10,11.38 0,5.52 -1.74,9.52 -4.63,12.19 -2.52,2.28 -6,3.52 -10.12,3.68 -1.02,0.08 -2.1,0.05 -2.8,-0.01 v -4.81 z m 3.74,-13.3 c 0.01,2.28 1.25,4.24 3.74,4.24 1.71,0 2.87,-0.79 3.45,-1.73 0.19,-0.37 0.29,-0.79 0.29,-1.55 0.02,-2.82 -1.04,-5.57 -3.86,-5.57 -2.1,0 -3.64,1.87 -3.62,4.61 z" id="path39"/>
		<path style="fill:#ffffff" d="m 377.03,497.51 h 9.21 v 4.48 h -13.45 v -25.02 h 13.3 v 4.44 h -9.06 v 5.64 h 7.83 l -0.5,4.4 h -7.33 z" id="path40"/>
		<path style="fill:#ffffff" d="m 388.15,499.52 1.97,-3.82 c 1.9,1.52 3.77,2.28 5.59,2.28 1.17,0 2.08,-0.23 2.75,-0.69 0.66,-0.46 1,-1.16 1,-2.09 0,-0.57 -0.11,-1.04 -0.32,-1.41 -0.21,-0.37 -0.59,-0.73 -1.14,-1.08 -0.54,-0.35 -1.36,-0.79 -2.44,-1.33 l -0.71,-0.35 c -1.31,-0.64 -2.36,-1.26 -3.16,-1.85 -0.8,-0.59 -1.43,-1.35 -1.9,-2.28 -0.47,-0.93 -0.71,-2.1 -0.71,-3.51 0,-1.57 0.36,-2.88 1.07,-3.92 0.72,-1.04 1.64,-1.81 2.76,-2.3 1.13,-0.49 2.32,-0.73 3.59,-0.73 1.15,0 2.33,0.24 3.55,0.71 1.22,0.48 2.38,1.18 3.49,2.1 l -1.98,3.78 c -0.98,-0.75 -1.84,-1.29 -2.59,-1.62 -0.75,-0.33 -1.57,-0.5 -2.44,-0.5 -0.98,0 -1.71,0.21 -2.21,0.62 -0.5,0.41 -0.75,0.97 -0.75,1.66 0,0.44 0.1,0.83 0.31,1.18 0.2,0.35 0.57,0.69 1.1,1.04 0.53,0.35 1.29,0.75 2.29,1.22 l 0.67,0.31 c 1.3,0.62 2.36,1.2 3.16,1.74 0.8,0.54 1.48,1.31 2.03,2.32 0.55,1 0.82,2.3 0.82,3.9 0,1.67 -0.35,3.08 -1.04,4.23 -0.69,1.15 -1.64,2 -2.84,2.57 -1.2,0.57 -2.55,0.85 -4.07,0.85 -3.09,-0.02 -5.71,-1.02 -7.85,-3.03 z" id="path41"/>
		<path style="fill:#ffffff" d="m 421.96,476.97 v 4.67 h -6.33 v 20.35 h -4.24 v -20.35 h -6.36 v -4.67 z" id="path42"/>
		<path style="fill:#ffffff" d="m 421.82,502.07 c -0.38,-0.28 -0.68,-0.66 -0.91,-1.12 -0.23,-0.46 -0.34,-0.98 -0.34,-1.54 0,-0.54 0.11,-1.04 0.34,-1.51 0.22,-0.46 0.53,-0.84 0.91,-1.12 0.38,-0.28 0.79,-0.42 1.24,-0.42 0.43,0 0.83,0.14 1.21,0.42 0.38,0.28 0.69,0.66 0.92,1.12 0.24,0.46 0.35,0.97 0.35,1.51 0,0.57 -0.11,1.08 -0.34,1.54 -0.23,0.46 -0.53,0.84 -0.92,1.12 -0.39,0.28 -0.8,0.42 -1.23,0.42 -0.44,0 -0.85,-0.14 -1.23,-0.42 z" id="path43"/>
		<path style="fill:#ffffff" d="m 504.27,482.34 h -10.26 l -0.57,4.05 c 0.59,-0.07 1.08,-0.09 1.71,-0.09 2.52,0.01 5.12,0.59 6.98,1.91 1.99,1.36 3.2,3.56 3.2,6.65 0,4.94 -4.23,9.28 -11.35,9.28 -3.2,0 -5.88,-0.74 -7.37,-1.5 l 1.13,-4.65 c 1.17,0.58 3.57,1.32 5.96,1.32 2.57,0 5.3,-1.23 5.29,-4.04 -0.01,-2.71 -2.17,-4.39 -7.44,-4.39 -1.45,0 -2.48,0.1 -3.56,0.24 l 1.72,-13.87 h 14.57 v 5.09 z" id="path44"/>
		<path style="fill:#ffffff" d="m 510.06,497.64 c 1.08,0.58 3.63,1.61 6.15,1.61 3.21,0 4.84,-1.54 4.83,-3.51 -0.01,-2.62 -2.6,-3.81 -5.33,-3.81 h -2.52 v -4.44 h 2.42 c 2.07,-0.01 4.68,-0.81 4.68,-3.04 0,-1.58 -1.28,-2.77 -3.89,-2.77 -2.17,0 -4.45,0.93 -5.52,1.58 l -1.27,-4.46 c 1.6,-1.03 4.75,-2 8.18,-2 5.66,0 8.78,2.97 8.78,6.6 0,2.78 -1.6,5 -4.83,6.13 v 0.08 c 3.17,0.57 5.73,2.96 5.73,6.44 0,4.67 -4.12,8.08 -10.82,8.08 -3.43,0 -6.31,-0.88 -7.85,-1.85 z" id="path45"/>
	</g>
</g></g></g></svg>